<svg width="640" height="420" viewBox="0 0 640 420" fill="none" xmlns="http://www.w3.org/2000/svg">
  <rect width="640" height="420" rx="40" fill="#F4F8FF"/>
  <path d="M112 239C115 193 154 157 200 157H334L423 98C458 75 505 73 542 92C577 110 597 145 593 184C588 222 558 252 519 260L518 304C518 322 503 337 485 337C467 337 452 322 452 304V259H376L352 339C349 357 332 368 314 364C296 360 285 342 289 324L304 259H232L220 333C218 351 202 364 184 362C166 359 153 343 155 325L163 259H155C130 259 111 259 112 239Z" fill="#8C6A4D"/>
  <circle cx="494" cy="146" r="9" fill="#2C3E50"/>
  <path d="M580 245C603 260 616 286 616 313C616 339 604 363 583 380" stroke="#8C6A4D" stroke-width="20" stroke-linecap="round"/>
  <path d="M408 103L431 47C440 25 466 15 488 25C509 34 520 57 514 79L504 113" fill="#8C6A4D"/>
</svg>
