<svg width="640" height="420" viewBox="0 0 640 420" fill="none" xmlns="http://www.w3.org/2000/svg">
  <rect width="640" height="420" rx="40" fill="#EEF9F6"/>
  <path d="M171 247C171 208 203 176 242 176H355L415 123C442 99 481 95 512 111C540 126 555 154 551 184C546 215 521 238 489 242L493 286C495 303 482 318 465 320C448 321 434 309 431 293L423 247H338L312 332C309 349 293 360 276 357C259 354 248 337 251 320L263 247H242C220 247 201 264 198 286L194 320C192 337 177 349 160 347C143 345 130 330 132 313L136 281C141 261 153 250 171 247Z" fill="#C38F5E"/>
  <circle cx="468" cy="154" r="8" fill="#2C3E50"/>
  <path d="M540 231C564 244 580 270 580 299C580 325 568 347 548 364" stroke="#C38F5E" stroke-width="18" stroke-linecap="round"/>
  <path d="M387 125L404 78C412 56 435 45 457 53C477 60 488 81 484 102L478 128" fill="#C38F5E"/>
</svg>
