<svg width="640" height="420" viewBox="0 0 640 420" fill="none" xmlns="http://www.w3.org/2000/svg">
  <rect width="640" height="420" rx="40" fill="#F5FBF3"/>
  <path d="M420 110C444 82 486 78 512 98C535 115 543 147 531 172C521 193 500 206 480 210L491 252C495 268 486 285 470 290C454 295 438 286 432 271L416 232H374C341 232 313 259 313 292V306C313 324 298 339 280 339C262 339 247 324 247 306V289C247 247 277 211 317 205L349 200L330 167L297 150C276 139 264 115 268 92C271 69 289 50 312 47C339 44 361 61 369 86L376 110H420Z" fill="#D7A66D"/>
  <circle cx="463" cy="133" r="8" fill="#2C3E50"/>
  <path d="M529 166C553 177 568 202 568 229C568 258 552 284 527 297" stroke="#D7A66D" stroke-width="18" stroke-linecap="round"/>
  <path d="M206 266C177 269 155 294 155 323V329" stroke="#D7A66D" stroke-width="20" stroke-linecap="round"/>
  <path d="M362 125L383 75C390 58 410 50 427 58C442 65 448 83 441 99L427 128" fill="#D7A66D"/>
</svg>
